<svg height="512" viewBox="0 0 60 61" width="512" xmlns="http://www.w3.org/2000/svg"><g id="Page-1" fill="none" fill-rule="evenodd"><g id="046---Catnip" fill="rgb(0,0,0)" fill-rule="nonzero" transform="translate(-1)"><path id="Shape" d="m58 35h-1v-2c-.0056259-.4229242-.0788852-.8422241-.217-1.242 1.9267859-.8631899 3.4270434-2.4628642 4.165-4.441.1019193-.3049302.0510086-.6402668-.136821-.9012074-.1878297-.2609406-.489667-.4156558-.811179-.4157926h-1.719c.4492209-.937867.6942862-1.9603928.719-3 .0001616-.346618-.1791823-.6685998-.4739691-.8509316-.2947867-.1823318-.6629693-.1990067-.9730309-.0440684-.3520675.1916045-.7734881.2075142-1.139.043-1.0842382-.655473-1.8883122-1.6881633-2.258-2.9 3.78-3.579 2.844-9.115 1.763-11.642-.1575827-.36760381-.5190439-.60595583-.919-.606-2.8447191.13655934-5.5843964 1.11685557-7.87 2.816-1.647514-.57630969-3.3849814-.85267878-5.13-.816-1.7450186-.03667878-3.482486.23969031-5.13.816-2.2856036-1.69914443-5.0252809-2.67944066-7.87-2.816-.3999561.00004417-.7614173.23839619-.919.606-1.081 2.527-2.017 8.063 1.763 11.645-.3696878 1.2118367-1.1737618 2.244527-2.258 2.9-.3656332.1638908-.7867645.147992-1.139-.043-.3095844-.1547012-.6771505-.1383312-.9717569.0432783-.2946065.1816095-.4743667.5026376-.4752431.8487217.0247138 1.0396072.2697791 2.062133.719 3h-1.719c-.321512.0001368-.6233493.154852-.811179.4157926-.1878296.2609406-.2387403.5962772-.136821.9012074.7379566 1.9781358 2.2382141 3.5778101 4.165 4.441-.1381148.3997759-.2113741.8190758-.217 1.242v2h-5c.012-4.916.117-26.761.988-32.858.0671857-.36095081-.0688288-.72969263-.3543123-.96055756-.2854834-.23086493-.6745211-.28672273-1.0134276-.14550731s-.573175.45679224-.6102601.82206487c-.9 6.309-1 28.133-1.009 33.142h-2.001v-33c0-.55228475-.4477153-1-1-1s-1 .44771525-1 1v33h-2c-.024-4.655-.232-23.866-2.049-29.316-.174522-.52467049-.7413295-.80852195-1.266-.63399997s-.80852196.74132946-.634 1.26599997c1.7 5.099 1.917 24.113 1.949 28.684h-2.009c-.053-3.663-.426-16.342-3.054-23.352-.19329966-.5174908-.76950919-.7802997-1.287-.587s-.78029966.7695092-.587 1.287c2.479 6.611 2.865 19.059 2.926 22.652h-1.019c-.125-2.55-.777-9.361-4.189-13.625-.34517797-.4313344-.97466561-.501178-1.406-.156s-.50117797.9746656-.156 1.406c2.981 3.724 3.61 9.965 3.744 12.375h-.963c-1.49115184-.0058816-2.7588582 1.0874783-2.9720662 2.5633206-.213208 1.4758424.69321863 2.883289 2.1250662 3.2996794l3.223 16.117c.47156987 2.333517 2.5193199 4.0135079 4.9 4.02h39.445c2.3806801-.0064921 4.4284301-1.686483 4.9-4.02l3.223-16.117c1.4312818-.4162452 2.3376293-1.8228138 2.1252443-3.298185s-1.4786711-2.5691814-2.9692443-2.564815zm-3-2v2h-8v-2c0-1.1045695.8954305-2 2-2h4c1.1045695 0 2 .8954305 2 2zm-29.348-5h2.348c.4641918.0004339.8676531-.3186234.9742238-.7704163.1065707-.451793-.1117718-.9175238-.5272238-1.1245837-.6594517-.4121724-1.1155242-1.0823124-1.257-1.847.3990818-.0176559.792001-.1049713 1.161-.258 1.5-.621 2.805-2.317 3.589-4.656v-.007c.169363-.4109609.0471361-.8843865-.3-1.162-3.558-2.86-2.5-7.456-1.958-9.142 2.3518102.31714396 4.576179 1.2568819 6.443 2.722.2881463.2158655.6700895.2601709 1 .116 1.5490199-.6182723 3.2077207-.9146268 4.875-.871 1.6656641-.0443527 3.3229395.2506294 4.871.867.3297154.1454699.7123411.1010854 1-.116 1.866821-1.4651181 4.0911898-2.40485604 6.443-2.722.546 1.686 1.6 6.282-1.958 9.142-.3462167.2773283-.4683541.749593-.3 1.16v.01c.785 2.339 2.091 4.035 3.589 4.655.370188.15537.7649297.2440684 1.166.262-.1405394.7664321-.5990641 1.4375058-1.262 1.847-.4161351.2073865-.6344355.6742248-.5267868 1.1265403s.5128435.7707652.9777868.7684597h2.347c-.6476703.9530061-1.587554 1.6696762-2.678 2.042-.7289428-.6674577-1.6806435-1.0390097-2.669-1.042h-4c-2.209139 0-4 1.790861-4 4v2h-6v-2c0-2.209139-1.790861-4-4-4h-4c-.9883565.0029903-1.9400572.3745423-2.669 1.042-1.0906758-.3723931-2.030859-1.0890239-2.679-2.042zm3.348 5c0-1.1045695.8954305-2 2-2h4c1.1045695 0 2 .8954305 2 2v2h-8zm24.663 23.588c-.2835159 1.40059-1.5130066 2.4085886-2.942 2.412h-39.442c-1.42899336-.0034114-2.65848414-1.01141-2.942-2.412l-3.117-15.588h51.56zm4.337-17.588h-54c-.55228475 0-1-.4477153-1-1s.44771525-1 1-1h54c.5522847 0 1 .4477153 1 1s-.4477153 1-1 1z"/><path id="Shape" d="m38.1 25.844c-.1792443.5228452-.1219286 1.0978267.157 1.575.5774747 1.1240265 1.5566542 1.9896883 2.743 2.425v1.156c0 .5522847.4477153 1 1 1s1-.4477153 1-1v-1.156c1.1853954-.4361962 2.1634439-1.3021617 2.74-2.426.2782955-.4770565.3352385-1.0515971.156-1.574-.1980917-.5598451-.6298721-1.0058601-1.183-1.222-.8574534-.3752453-1.7777161-.5862307-2.713-.622-.9352839.0357693-1.8555466.2467547-2.713.622-.5546498.2151785-.9880257.661333-1.187 1.222zm3.9.156c.6861868.0476431 1.363057.1858416 2.013.411-.347.594-1.069 1.589-2.013 1.589s-1.666-1-1.969-1.522c.6221964-.276596 1.2892385-.438529 1.969-.478z"/><path id="Shape" d="m37 23c1.6568542 0 3-1.3431458 3-3s-1.3431458-3-3-3-3 1.3431458-3 3 1.3431458 3 3 3zm0-4c.5522847 0 1 .4477153 1 1s-.4477153 1-1 1-1-.4477153-1-1 .4477153-1 1-1z"/><path id="Shape" d="m47 23c1.6568542 0 3-1.3431458 3-3s-1.3431458-3-3-3-3 1.3431458-3 3 1.3431458 3 3 3zm0-4c.5522847 0 1 .4477153 1 1s-.4477153 1-1 1-1-.4477153-1-1 .4477153-1 1-1z"/></g></g></svg>